<svg width="52" height="50" viewBox="0 0 52 50" fill="none" xmlns="http://www.w3.org/2000/svg">
<g filter="url(#filter0_d_2601_9619)">
<path d="M32.25 14.4474H19.125L11.25 7.5L9.5 26.6053C9.5 31.8158 13 40.5 25.25 40.5C37.5 40.5 41 31.8158 41 26.6053C41 24.5211 39.8333 13 39.25 7.5L32.25 14.4474Z" stroke="#363636" stroke-width="2" stroke-linejoin="round"/>
<path d="M17 27H5" stroke="#363636" stroke-width="2" stroke-linecap="round" stroke-linejoin="round"/>
<path d="M47 27H35" stroke="#363636" stroke-width="2" stroke-linecap="round" stroke-linejoin="round"/>
<path d="M18.5 34.5H6.5" stroke="#363636" stroke-width="2" stroke-linecap="round" stroke-linejoin="round"/>
<path d="M45.5 34.5H33.5" stroke="#363636" stroke-width="2" stroke-linecap="round" stroke-linejoin="round"/>
<path d="M25.25 27V30C26.25 31 28.7 32.4 30.5 30" stroke="#363636" stroke-width="2" stroke-linecap="round" stroke-linejoin="round"/>
<path d="M25.25 30C24.25 31 21.8 32.4 20 30" stroke="#363636" stroke-width="2" stroke-linecap="round" stroke-linejoin="round"/>
</g>
<defs>
<filter id="filter0_d_2601_9619" x="-2" y="0" width="56" height="56" filterUnits="userSpaceOnUse" color-interpolation-filters="sRGB">
<feFlood flood-opacity="0" result="BackgroundImageFix"/>
<feColorMatrix in="SourceAlpha" type="matrix" values="0 0 0 0 0 0 0 0 0 0 0 0 0 0 0 0 0 0 127 0" result="hardAlpha"/>
<feOffset dy="4"/>
<feGaussianBlur stdDeviation="2"/>
<feComposite in2="hardAlpha" operator="out"/>
<feColorMatrix type="matrix" values="0 0 0 0 0 0 0 0 0 0 0 0 0 0 0 0 0 0 0.25 0"/>
<feBlend mode="normal" in2="BackgroundImageFix" result="effect1_dropShadow_2601_9619"/>
<feBlend mode="normal" in="SourceGraphic" in2="effect1_dropShadow_2601_9619" result="shape"/>
</filter>
</defs>
</svg>
